<mxfile host="app.diagrams.net" modified="2022-05-26T00:48:55.160Z" agent="5.0 (Windows NT 10.0; Win64; x64) AppleWebKit/537.36 (KHTML, like Gecko) Chrome/101.0.4951.67 Safari/537.36" etag="KC-8JaJHN-6sQvj6tpDb" version="18.1.2" type="github">
  <diagram id="8dULhvoRKQdAQdLDypAU" name="ページ1">
    <mxGraphModel dx="1583" dy="643" grid="1" gridSize="10" guides="1" tooltips="1" connect="1" arrows="1" fold="1" page="1" pageScale="1" pageWidth="4681" pageHeight="3300" math="0" shadow="0">
      <root>
        <mxCell id="0" />
        <mxCell id="1" parent="0" />
        <mxCell id="1tIDZKmvoSCDPX_gWpzF-5" value="サーバ" style="swimlane;fontSize=18;" vertex="1" parent="1">
          <mxGeometry x="520" y="140" width="200" height="200" as="geometry" />
        </mxCell>
        <mxCell id="1tIDZKmvoSCDPX_gWpzF-3" value="" style="aspect=fixed;perimeter=ellipsePerimeter;html=1;align=center;shadow=0;dashed=0;spacingTop=3;image;image=img/lib/active_directory/generic_server.svg;fontSize=18;" vertex="1" parent="1tIDZKmvoSCDPX_gWpzF-5">
          <mxGeometry x="60.8" y="40" width="78.4" height="140" as="geometry" />
        </mxCell>
        <mxCell id="1tIDZKmvoSCDPX_gWpzF-6" value="DB" style="swimlane;fontSize=18;" vertex="1" parent="1">
          <mxGeometry x="890" y="140" width="200" height="200" as="geometry" />
        </mxCell>
        <mxCell id="1tIDZKmvoSCDPX_gWpzF-4" value="" style="aspect=fixed;perimeter=ellipsePerimeter;html=1;align=center;shadow=0;dashed=0;spacingTop=3;image;image=img/lib/active_directory/database_server.svg;fontSize=18;" vertex="1" parent="1tIDZKmvoSCDPX_gWpzF-6">
          <mxGeometry x="38.5" y="40" width="123" height="150" as="geometry" />
        </mxCell>
        <mxCell id="1tIDZKmvoSCDPX_gWpzF-7" value="スマホ" style="swimlane;fontSize=18;" vertex="1" parent="1">
          <mxGeometry x="120" y="90" width="200" height="290" as="geometry" />
        </mxCell>
        <mxCell id="1tIDZKmvoSCDPX_gWpzF-1" value="" style="sketch=0;aspect=fixed;pointerEvents=1;shadow=0;dashed=0;html=1;strokeColor=none;labelPosition=center;verticalLabelPosition=bottom;verticalAlign=top;align=center;fillColor=#00188D;shape=mxgraph.mscae.enterprise.android_phone" vertex="1" parent="1tIDZKmvoSCDPX_gWpzF-7">
          <mxGeometry x="28" y="40" width="144" height="240" as="geometry" />
        </mxCell>
      </root>
    </mxGraphModel>
  </diagram>
</mxfile>
